{"title":"Night.Train.to.Lisbon.2013.DVDrip x264 Ac3-MiLLENiUM [PublicHash","uid":8715281,"size":1598790172,"categoryP":"video","categoryS":"movies","magnet":"?xt=urn:btih:0024007f85c4f0531aa2305e1c63b01d58693a22&amp;dn=Night.Train.to.Lisbon.2013.DVDrip+x264+Ac3-MiLLENiUM+%5BPublicHash&amp;tr=udp%3A%2F%2Ftracker.openbittorrent.com%3A80&amp;tr=udp%3A%2F%2Fopen.demonii.com%3A1337&amp;tr=udp%3A%2F%2Ftracker.coppersurfer.tk%3A6969&amp;tr=udp%3A%2F%2Fexodus.desync.com%3A6969","seeders":1,"leechers":0,"uploader":"R0thschild","files":8,"time":1374318208,"description":"              ***********************************************\n\n                PublicHash - Largest Bittorrent Community\n      \n                         &lt;a href=&quot; http://publichash.com/&quot; rel=&quot;nofollow&quot; target=&quot;_NEW&quot;&gt; http://publichash.com/&lt;/a&gt;\n\n          Crystal Clean files - Fast Speed! No Virus! No Fake! Enjoy!\n    \n              ***********************************************\nNight.Train.to.Lisbon.2013.DVDrip x264 Ac3-MiLLENiUM [PublicHash]\n\nNight Train to Lisbon (2013)\n111 min  -  Mystery | Romance | Thriller  -  7 March 2013 (Germany)\nIMDB rating: 6.6\n\nRaimund Gregorius, a Swiss Professor, abandons his lectures and buttoned-down life to embark on a thrilling adventure that will take him on a journey to the very heart of himself.\n\nDirector: Bille August\nWriters: Pascal Mercier (novel), Greg Latter\n\nScreens: &lt;a href=&quot;\nhttp://imgsure.com/?p=217087&quot; rel=&quot;nofollow&quot; target=&quot;_NEW&quot;&gt;\nhttp://imgsure.com/?p=217087&lt;/a&gt; &lt;a href=&quot;\nhttp://imgsure.com/?p=546743&quot; rel=&quot;nofollow&quot; target=&quot;_NEW&quot;&gt;\nhttp://imgsure.com/?p=546743&lt;/a&gt; &lt;a href=&quot;\nhttp://imgsure.com/?p=234645&quot; rel=&quot;nofollow&quot; target=&quot;_NEW&quot;&gt;\nhttp://imgsure.com/?p=234645&lt;/a&gt; &lt;a href=&quot;\nhttp://imgsure.com/?p=326007&quot; rel=&quot;nofollow&quot; target=&quot;_NEW&quot;&gt;\nhttp://imgsure.com/?p=326007&lt;/a&gt;\n\nGeneral\n\nUnique ID                                : 173393446510193744162375177488189134999 \n                                                (0x82725CF2C656B339827741710E849897)\nComplete name                            : Night.Train.to.Lisbon.2013.x264 Ac3-MiLLENiUM.mkv\nSource                                   : DVDR [thanks]\nFormat                                   : Matroska\nFormat version                           : Version 4 / Version 2\nFile size                                : 1.46 GiB\nDuration                                 : 1h 46mn\nOverall bit rate mode                    : Variable\nOverall bit rate                         : 1 960 Kbps\nEncoded date                             : UTC 2013-07-20 01:25:55\nWriting application                      : mkvmerge v6.3.0 ('You can't stop me!'wink.gif \n                                                built on Jun 28 2013 20:09:41\nWriting library                          : libebml v1.3.0 + libmatroska v1.4.0\n\nVideo\nID                                       : 1\nFormat                                   : AVC\nFormat/Info                              : Advanced Video Codec\nFormat profile                           : &lt;a class=&quot;__cf_email__&quot; href=&quot;/cdn-cgi/l/email-protection&quot; data-cfemail=&quot;9ed6f7f9f6ded2aab0af&quot;&gt;[email&amp;#160;protected]&lt;/a&gt;&lt;script cf-hash='f9e31' type=&quot;text/javascript&quot;&gt;\n/* &lt;![CDATA[ */!function(){try{var t=&quot;currentScript&quot;in document?document.currentScript:function(){for(var t=document.getElementsByTagName(&quot;script&quot;),e=t.length;e--;)if(t[e].getAttribute(&quot;cf-hash&quot;))return t[e]}();if(t&amp;&amp;t.previousSibling){var e,r,n,i,c=t.previousSibling,a=c.getAttribute(&quot;data-cfemail&quot;);if(a){for(e=&quot;&quot;,r=parseInt(a.substr(0,2),16),n=2;a.length-n;n+=2)i=parseInt(a.substr(n,2),16)^r,e+=String.fromCharCode(i);e=document.createTextNode(e),c.parentNode.replaceChild(e,c)}}}catch(u){}}();/* ]]&gt; */&lt;/script&gt;\nFormat settings, CABAC                   : Yes\nFormat settings, ReFrames                : 3 frames\nCodec ID                                 : V_MPEG4/ISO/AVC\nDuration                                 : 1h 46mn\nBit rate mode                            : Variable\nBit rate                                 : 1 510 Kbps\nMaximum bit rate                         : 40.0 Mbps\nWidth                                    : 720 pixels\nHeight                                   : 384 pixels\nDisplay aspect ratio                     : 1.875\nFrame rate                               : 25.000 fps\nColor space                              : YUV\nChroma subsampling                       : 4:2:0\nBit depth                                : 8 bits\nScan type                                : Progressive\nBits/(Pixel*Frame)                       : 0.218\nStream size                              : 1.10 GiB (75%)\nWriting library                          : x264 core 135 r2345 f0c1c53\n\nLanguage                                 : English\nDefault                                  : Yes\nForced                                   : No\nColor primaries                          : BT.709-5, BT.1361, IEC 61966-2-4, SMPTE RP177\nTransfer characteristics                 : BT.709-5, BT.1361\nMatrix coefficients                      : BT.709-5, BT.1361, IEC 61966-2-4 709, SMPTE RP177\n\nAudio\nID                                       : 2\nFormat                                   : AC-3\nFormat/Info                              : Audio Coding 3\nMode extension                           : CM (complete main)\nCodec ID                                 : A_AC3\nDuration                                 : 1h 46mn\nBit rate mode                            : Constant\nBit rate                                 : 448 Kbps\nChannel(s)                               : 6 channels\nChannel positions                        : Front: L C R, Side: L R, LFE\nSampling rate                            : 48.0 KHz\nBit depth                                : 16 bits\nCompression mode                         : Lossy\nStream size                              : 342 MiB (23%)\nDefault                                  : Yes\nForced                                   : No\n\nIMDB: http://www.imdb.com/title/tt1654523/","torrent":{"xt":"urn:btih:0024007f85c4f0531aa2305e1c63b01d58693a22","amp;dn":"Night.Train.to.Lisbon.2013.DVDrip+x264+Ac3-MiLLENiUM+%5BPublicHash","amp;tr":["udp%3A%2F%2Ftracker.openbittorrent.com%3A80","udp%3A%2F%2Fopen.demonii.com%3A1337","udp%3A%2F%2Ftracker.coppersurfer.tk%3A6969","udp%3A%2F%2Fexodus.desync.com%3A6969"],"infoHash":"0024007f85c4f0531aa2305e1c63b01d58693a22","infoHashBuffer":{"type":"Buffer","data":[0,36,0,127,133,196,240,83,26,162,48,94,28,99,176,29,88,105,58,34]},"announce":[],"urlList":[]}}